<svg width="12" height="12" viewBox="0 0 12 12" fill="none" xmlns="http://www.w3.org/2000/svg">
<path fill-rule="evenodd" clip-rule="evenodd" d="M1.5 3.25C1.5 2.2835 2.2835 1.5 3.25 1.5C4.2165 1.5 5 2.2835 5 3.25V4H7V3.25C7 2.2835 7.7835 1.5 8.75 1.5C9.7165 1.5 10.5 2.2835 10.5 3.25C10.5 4.2165 9.7165 5 8.75 5H8V7H8.75C9.7165 7 10.5 7.7835 10.5 8.75C10.5 9.7165 9.7165 10.5 8.75 10.5C7.7835 10.5 7 9.7165 7 8.75V8H5V8.75C5 9.7165 4.2165 10.5 3.25 10.5C2.2835 10.5 1.5 9.7165 1.5 8.75C1.5 7.7835 2.2835 7 3.25 7H4V5H3.25C2.2835 5 1.5 4.2165 1.5 3.25ZM4 4V3.25C4 2.83579 3.66422 2.5 3.25 2.5C2.83579 2.5 2.5 2.83579 2.5 3.25C2.5 3.66422 2.83579 4 3.25 4H4ZM5 5V7H7V5H5ZM4 8H3.25C2.83579 8 2.5 8.3358 2.5 8.75C2.5 9.1642 2.83579 9.5 3.25 9.5C3.66422 9.5 4 9.1642 4 8.75V8ZM8 8V8.75C8 9.1642 8.3358 9.5 8.75 9.5C9.1642 9.5 9.5 9.1642 9.5 8.75C9.5 8.3358 9.1642 8 8.75 8H8ZM8 4H8.75C9.1642 4 9.5 3.66422 9.5 3.25C9.5 2.83579 9.1642 2.5 8.75 2.5C8.3358 2.5 8 2.83579 8 3.25V4Z" fill="black"/>
</svg>
