<svg width="22" height="22" viewBox="0 0 22 22" fill="none" xmlns="http://www.w3.org/2000/svg">
<path d="M8.24998 18.3333C8.75624 18.3333 9.16665 18.7437 9.16665 19.25C9.16665 19.7563 8.75624 20.1667 8.24998 20.1667C7.74372 20.1667 7.33331 19.7563 7.33331 19.25C7.33331 18.7437 7.74372 18.3333 8.24998 18.3333ZM14.6666 18.3333C15.1729 18.3333 15.5833 18.7437 15.5833 19.25C15.5833 19.7563 15.1729 20.1667 14.6666 20.1667C14.1604 20.1667 13.75 19.7563 13.75 19.25C13.75 18.7437 14.1604 18.3333 14.6666 18.3333ZM3.20376 2.41178L3.30003 2.47506L4.86547 3.64914C5.13353 3.85018 5.33983 4.11961 5.4644 4.42676L5.51978 4.58334H17.2949C18.3517 4.58334 19.1794 5.47097 19.1261 6.50802L19.1141 6.64407L18.6952 9.99488C18.4351 12.0762 16.7984 13.7058 14.7356 13.9719L14.528 13.9939L7.82469 14.5525L8.06258 15.5834H16.0417C16.5479 15.5834 16.9584 15.9938 16.9584 16.5001C16.9584 16.9701 16.6045 17.3576 16.1486 17.4106L16.0417 17.4168H8.06258C7.2591 17.4168 6.5557 16.8947 6.31569 16.1399L6.2762 15.9957L3.76547 5.1158L2.20003 3.94173C1.79502 3.63797 1.71294 3.0634 2.0167 2.65839C2.27372 2.31569 2.72464 2.2042 3.10267 2.36203L3.20376 2.41178ZM17.2949 6.41667H5.94719L7.40816 12.7475L14.3757 12.1669C15.6717 12.0589 16.7148 11.0579 16.8761 9.76755L17.2949 6.41667Z" fill="#737682"/>
</svg>
