<svg width="22" height="22" viewBox="0 0 22 22" fill="none" xmlns="http://www.w3.org/2000/svg">
<path d="M4.90597 5.676L5.49997 8.206L4.90597 10.725L7.11697 12.089L8.46997 14.3L11 13.706L13.53 14.3L14.883 12.089L17.094 10.725L16.5 8.206L17.094 5.676L14.894 4.312L13.53 2.101L11 2.706L8.48097 2.112L7.10597 4.312L4.90597 5.676ZM11.011 12.65C9.84402 12.65 8.72486 12.1864 7.8997 11.3613C7.07454 10.5361 6.61097 9.41695 6.61097 8.25C6.61097 7.08305 7.07454 5.96389 7.8997 5.13873C8.72486 4.31357 9.84402 3.85 11.011 3.85C13.431 3.85 15.4 5.819 15.4 8.239C15.4 10.681 13.431 12.65 11.011 12.65ZM10.989 11.55C9.16297 11.55 7.69997 10.076 7.69997 8.25C7.69997 6.435 9.16297 4.95 10.989 4.95C12.815 4.95 14.3 6.435 14.3 8.25C14.3 10.076 12.815 11.55 10.989 11.55ZM15.213 12.76L13.805 15.224L11.517 14.707L14.3 21.12L15.84 18.7H18.59L15.213 12.76ZM6.74297 12.837L8.11797 15.312L10.461 14.751L7.69997 21.12L6.15997 18.7H3.40997L6.74297 12.837Z" fill="#737682"/>
</svg>
