<svg width="40" height="40" viewBox="0 0 40 40" fill="none" xmlns="http://www.w3.org/2000/svg">
<path d="M30.3125 21.3125L33.25 19.5625C34.25 18.8125 36 19.5625 37.125 21.25C38.1875 22.9375 38.25 24.875 37.25 25.625C37.1875 25.6875 37.125 25.75 37 25.75L34.25 27.375L30.3125 21.3125Z" fill="#3E4347"/>
<path d="M30.6875 25.625C31.75 27.3125 33.25 28.125 34.3125 27.375C35.3125 26.625 35.3125 24.6875 34.1875 23C33.125 21.3125 31.375 20.5625 30.3125 21.3125C29.375 22 29.875 24.4375 30.6875 25.625Z" fill="#62696D"/>
<path d="M31.5 25.0625C32.0625 25.9375 32.8125 26.375 33.375 25.9375C33.9375 25.5625 33.875 24.5 33.3125 23.625C32.75 22.75 31.8125 22.3125 31.25 22.75C30.75 23.125 30.9375 24.1875 31.5 25.0625Z" fill="#3E4347"/>
<path d="M32 23.75C32.5625 23.4375 33.3125 24.25 32.9375 24.8125L30.5 26.3125L29.75 25L32 23.75Z" fill="#B2C1C0"/>
<path d="M29.8125 20.875V24.25L27.25 21.875L29.8125 20.875Z" fill="#9C2C1B"/>
<path d="M17.8125 10.375L21.1875 8.37499C22.375 7.49999 24.375 8.37499 25.625 10.3125C26.875 12.25 26.9375 14.5 25.75 15.375C25.6875 15.4375 25.5625 15.5 25.5 15.5L22.375 17.375L17.8125 10.375Z" fill="#3E4347"/>
<path d="M18.1875 15.3125C19.4375 17.25 21.1875 18.1875 22.375 17.3125C23.5625 16.4375 23.5 14.1875 22.25 12.25C21 10.3125 19 9.43749 17.8125 10.3125C16.6875 11.125 17.3125 13.9375 18.1875 15.3125Z" fill="#62696D"/>
<path d="M31.9375 30.5625L24.8125 26.625L23 27.6875L15.75 26.0625L6.8125 19.3125V16.125L15.75 22.375L23 25L24.8125 23.6875L31.9375 29.4375V30.5625Z" fill="#9C2C1B"/>
<path d="M34.5625 27.75L31.9375 29.4375L24.8125 23.6875L23 25L15.75 22.375L6.8125 16.125L9.0625 14.8125L10.5625 15.1875L15.75 12.3125L15.6875 11.625L17.75 10.375L27.0625 16.5625L29.8125 20.875L27.875 21.8125L34.5625 27.75Z" fill="#D33B23"/>
<path d="M9.75 9.875V12.625L16.375 15.8125L19.3125 14.4375L11.5625 11.4375V9.875H9.75Z" fill="#F15744"/>
<path d="M19.3125 16.8125V14.4375L16.375 15.8125L9.75 12.625V9.875H9.375V12.875L16.375 18.125L19.3125 16.8125Z" fill="#9C2C1B"/>
<path d="M27.0625 16.5625L29.8125 20.875L23 25L15.75 22.375L27.0625 16.5625Z" fill="#F15744"/>
<path d="M27.0625 16.5625L29.8125 20.875L29.0625 21.3125L26.25 16.9375L27.0625 16.5625Z" fill="#FFE62E"/>
<path d="M17.8125 10.375L27.0625 16.5625L26.25 16.9375L17.0625 10.8125L17.8125 10.375ZM17.1875 21.625L24 24.375L23 25L15.75 22.375L17.1875 21.625Z" fill="#FFE62E"/>
<path d="M7.9375 15.4375L17.1875 21.625L15.75 22.375L6.8125 16.125L7.9375 15.4375Z" fill="#FFE62E"/>
<path d="M16.375 18.125C16.1875 19.4375 18.1875 21.125 20.125 21.375C23.5 21.875 25.0625 19.9375 24.0625 17.9375C23.125 16.125 19.375 16.5 19.375 16.5L16.375 18.125Z" fill="#9C2C1B"/>
<path d="M3.125 18.6875L7 16.375C8.375 15.375 10.625 16.375 12 18.5625C13.4375 20.75 13.5 23.3125 12.125 24.25C12.0625 24.3125 11.9375 24.375 11.8125 24.4375L8.25 26.5625L3.125 18.6875Z" fill="#3E4347"/>
<path d="M3.5625 24.3125C5 26.5 6.9375 27.5625 8.3125 26.5625C9.6875 25.5625 9.5625 23.0625 8.1875 20.875C6.75 18.6875 4.5 17.6875 3.1875 18.6875C1.875 19.625 2.5625 22.75 3.5625 24.3125Z" fill="#62696D"/>
<path d="M4.68749 23.5625C5.43749 24.75 6.37499 25.25 7.12499 24.75C7.81249 24.25 7.81249 22.875 7.06249 21.6875C6.24999 20.5625 5.06249 20 4.31249 20.5625C3.62499 21.0625 3.93749 22.375 4.68749 23.5625Z" fill="#3E4347"/>
<path d="M19.6875 27.0625L23.0625 25.0625C24.25 24.1875 26.25 25.0625 27.5 27C28.75 28.9375 28.8125 31.1875 27.625 32.0625C27.5625 32.125 27.4375 32.1875 27.375 32.1875L24.25 34.0625L19.6875 27.0625Z" fill="#3E4347"/>
<path d="M20.0625 32.0625C21.3125 34 23.0625 34.9375 24.25 34.0625C25.4375 33.1875 25.375 30.9375 24.125 29C22.875 27.0625 20.875 26.1875 19.6875 27.0625C18.5625 27.875 19.1875 30.6875 20.0625 32.0625Z" fill="#62696D"/>
<path d="M21.0625 31.375C21.75 32.375 22.5625 32.875 23.1875 32.4375C23.8125 32 23.8125 30.75 23.125 29.75C22.4375 28.75 21.375 28.25 20.75 28.75C20.125 29.1875 20.375 30.375 21.0625 31.375Z" fill="#3E4347"/>
<path d="M14.1875 5.625L16.6875 7.875L5.0625 14L1.25 10.5L14.1875 5.625Z" fill="#D33B23"/>
<path d="M17.25 17.9375C17.25 19.8125 19.5 20.75 21.25 20.75C23.0625 20.75 23.6875 19.8125 23.6875 17.9375C23.6875 16.0625 22.25 14.5625 20.4375 14.5625C18.6875 14.5625 17.25 16.0625 17.25 17.9375Z" fill="#42ADE2"/>
<path d="M19.1875 17.875C19.25 17.1875 21.625 17.1875 23.4375 17.0625C24 17 23.9375 19.125 23.4375 19.1875C20.5625 19.4375 19.125 18.5625 19.1875 17.875Z" fill="#3E4347"/>
<path d="M37.5 25.5625L38.75 28.3125L30.5625 33.8125L26.875 32.125L34.25 27.5625L37.5 25.5625Z" fill="#F15744"/>
<path d="M3 9.8125L7 13L8.125 12.4375L4.5 9.25L3 9.8125ZM12 6.4375L14.6875 8.9375L15.5 8.5L13 6.0625L12 6.4375ZM35.75 26.6875L37.125 29.375L37.8125 28.9375L36.5625 26.1875L35.75 26.6875ZM28.5 31.125L31.5625 33.125L32.25 32.625L29.375 30.625L28.5 31.125Z" fill="#FFE62E"/>
</svg>
