<svg width="22" height="22" viewBox="0 0 22 22" fill="none" xmlns="http://www.w3.org/2000/svg">
<g clip-path="url(#clip0_119_182)">
<path d="M11 2.75C11.2337 2.75026 11.4584 2.83972 11.6283 3.00011C11.7982 3.1605 11.9004 3.37971 11.9141 3.61295C11.9278 3.84618 11.8519 4.07585 11.7019 4.25501C11.552 4.43418 11.3393 4.54932 11.1073 4.57692L11 4.58333H6.41669C6.19216 4.58336 5.97546 4.66579 5.80768 4.81499C5.6399 4.96418 5.53271 5.16977 5.50644 5.39275L5.50002 5.5V16.5C5.50005 16.7245 5.58248 16.9412 5.73168 17.109C5.88087 17.2768 6.08646 17.384 6.30944 17.4103L6.41669 17.4167H10.5417C10.7753 17.4169 11 17.5064 11.1699 17.6668C11.3398 17.8272 11.4421 18.0464 11.4558 18.2796C11.4695 18.5129 11.3936 18.7425 11.2436 18.9217C11.0937 19.1008 10.8809 19.216 10.6489 19.2436L10.5417 19.25H6.41669C5.71524 19.25 5.0403 18.982 4.52995 18.5008C4.0196 18.0196 3.71242 17.3616 3.67127 16.6613L3.66669 16.5V5.5C3.66665 4.79856 3.93465 4.12361 4.41586 3.61326C4.89708 3.10291 5.55512 2.79573 6.25535 2.75458L6.41669 2.75H11ZM16.2314 7.75867L18.8238 10.3519C18.9956 10.5238 19.0922 10.7569 19.0922 11C19.0922 11.2431 18.9956 11.4762 18.8238 11.6481L16.2314 14.2413C16.0594 14.4132 15.8262 14.5097 15.583 14.5096C15.3399 14.5096 15.1067 14.4129 14.9348 14.2409C14.7629 14.0689 14.6664 13.8356 14.6665 13.5925C14.6666 13.3493 14.7633 13.1161 14.9353 12.9443L15.9629 11.9167H11C10.7569 11.9167 10.5237 11.8201 10.3518 11.6482C10.1799 11.4763 10.0834 11.2431 10.0834 11C10.0834 10.7569 10.1799 10.5237 10.3518 10.3518C10.5237 10.1799 10.7569 10.0833 11 10.0833H15.9629L14.9353 9.05575C14.7633 8.88387 14.6666 8.6507 14.6665 8.40753C14.6664 8.16437 14.7629 7.93113 14.9348 7.75913C15.1067 7.58712 15.3399 7.49044 15.583 7.49036C15.8262 7.49027 16.0594 7.58678 16.2314 7.75867Z" fill="#737682"/>
</g>
<defs>
<clipPath id="clip0_119_182">
<rect width="22" height="22" fill="white"/>
</clipPath>
</defs>
</svg>
