<svg width="28" height="28" viewBox="0 0 28 28" fill="none" xmlns="http://www.w3.org/2000/svg">
<path d="M12.88 2.24002V4.38669H4.29333C3.724 4.38669 3.17799 4.61285 2.77541 5.01543C2.37283 5.41801 2.14667 5.96402 2.14667 6.53335V23.7067C2.14667 24.276 2.37283 24.822 2.77541 25.2246C3.17799 25.6272 3.724 25.8533 4.29333 25.8533H21.4667C22.036 25.8533 22.582 25.6272 22.9846 25.2246C23.3872 24.822 23.6133 24.276 23.6133 23.7067V15.12H25.76V23.7067C25.76 24.8453 25.3077 25.9374 24.5025 26.7425C23.6974 27.5477 22.6053 28 21.4667 28H4.29333C3.15467 28 2.06264 27.5477 1.25749 26.7425C0.452332 25.9374 0 24.8453 0 23.7067V6.53335C0 5.39469 0.452332 4.30266 1.25749 3.49751C2.06264 2.69235 3.15467 2.24002 4.29333 2.24002H12.88Z" fill="#737682"/>
<path d="M21.28 11.2C22.4682 11.2 23.6077 10.728 24.4478 9.88784C25.288 9.04767 25.76 7.90817 25.76 6.72C25.76 5.53183 25.288 4.39232 24.4478 3.55216C23.6077 2.712 22.4682 2.24 21.28 2.24C20.0918 2.24 18.9523 2.712 18.1122 3.55216C17.272 4.39232 16.8 5.53183 16.8 6.72C16.8 7.90817 17.272 9.04767 18.1122 9.88784C18.9523 10.728 20.0918 11.2 21.28 11.2ZM21.28 13.44C20.3975 13.44 19.5237 13.2662 18.7084 12.9285C17.8931 12.5908 17.1522 12.0958 16.5282 11.4718C15.9042 10.8477 15.4092 10.1069 15.0715 9.29163C14.7338 8.47632 14.56 7.60248 14.56 6.72C14.56 5.83752 14.7338 4.96367 15.0715 4.14837C15.4092 3.33306 15.9042 2.59225 16.5282 1.96824C17.1522 1.34423 17.8931 0.849241 18.7084 0.511529C19.5237 0.173818 20.3975 -1.315e-08 21.28 0C23.0623 2.65577e-08 24.7715 0.707998 26.0318 1.96824C27.292 3.22849 28 4.93774 28 6.72C28 8.50225 27.292 10.2115 26.0318 11.4718C24.7715 12.732 23.0623 13.44 21.28 13.44Z" fill="#F60303"/>
</svg>
