<svg width="22" height="22" viewBox="0 0 22 22" fill="none" xmlns="http://www.w3.org/2000/svg">
<g clip-path="url(#clip0_116_173)">
<path d="M10.0833 16.5H11.9166V14.6667H10.0833V16.5ZM11 1.83334C5.93998 1.83334 1.83331 5.94001 1.83331 11C1.83331 16.06 5.93998 20.1667 11 20.1667C16.06 20.1667 20.1666 16.06 20.1666 11C20.1666 5.94001 16.06 1.83334 11 1.83334ZM11 18.3333C6.95748 18.3333 3.66665 15.0425 3.66665 11C3.66665 6.95751 6.95748 3.66668 11 3.66668C15.0425 3.66668 18.3333 6.95751 18.3333 11C18.3333 15.0425 15.0425 18.3333 11 18.3333ZM11 5.50001C8.97415 5.50001 7.33331 7.14084 7.33331 9.16668H9.16665C9.16665 8.15834 9.99165 7.33334 11 7.33334C12.0083 7.33334 12.8333 8.15834 12.8333 9.16668C12.8333 11 10.0833 10.7708 10.0833 13.75H11.9166C11.9166 11.6875 14.6666 11.4583 14.6666 9.16668C14.6666 7.14084 13.0258 5.50001 11 5.50001Z" fill="#737682"/>
</g>
<defs>
<clipPath id="clip0_116_173">
<rect width="22" height="22" fill="white"/>
</clipPath>
</defs>
</svg>
