<svg width="22" height="22" viewBox="0 0 22 22" fill="none" xmlns="http://www.w3.org/2000/svg">
<path d="M14.3 6.6C14.3 7.47522 13.9523 8.31459 13.3334 8.93346C12.7146 9.55233 11.8752 9.9 11 9.9C10.1248 9.9 9.28539 9.55233 8.66652 8.93346C8.04765 8.31459 7.69998 7.47522 7.69998 6.6C7.69998 5.72479 8.04765 4.88542 8.66652 4.26655C9.28539 3.64768 10.1248 3.3 11 3.3C11.8752 3.3 12.7146 3.64768 13.3334 4.26655C13.9523 4.88542 14.3 5.72479 14.3 6.6ZM19.8 8.8C19.8 9.38348 19.5682 9.94306 19.1556 10.3556C18.743 10.7682 18.1835 11 17.6 11C17.0165 11 16.4569 10.7682 16.0443 10.3556C15.6318 9.94306 15.4 9.38348 15.4 8.8C15.4 8.21653 15.6318 7.65695 16.0443 7.24437C16.4569 6.83179 17.0165 6.6 17.6 6.6C18.1835 6.6 18.743 6.83179 19.1556 7.24437C19.5682 7.65695 19.8 8.21653 19.8 8.8ZM15.4 16.5C15.4 15.3331 14.9364 14.2139 14.1112 13.3887C13.2861 12.5636 12.1669 12.1 11 12.1C9.83302 12.1 8.71387 12.5636 7.88871 13.3887C7.06355 14.2139 6.59998 15.3331 6.59998 16.5V19.8H15.4V16.5ZM6.59998 8.8C6.59998 9.38348 6.36819 9.94306 5.95561 10.3556C5.54303 10.7682 4.98345 11 4.39998 11C3.8165 11 3.25692 10.7682 2.84434 10.3556C2.43176 9.94306 2.19998 9.38348 2.19998 8.8C2.19998 8.21653 2.43176 7.65695 2.84434 7.24437C3.25692 6.83179 3.8165 6.6 4.39998 6.6C4.98345 6.6 5.54303 6.83179 5.95561 7.24437C6.36819 7.65695 6.59998 8.21653 6.59998 8.8ZM17.6 19.8V16.5C17.6016 15.3816 17.3176 14.2813 16.775 13.3034C17.2627 13.1786 17.7724 13.1668 18.2653 13.269C18.7582 13.3712 19.2213 13.5846 19.6192 13.8929C20.0171 14.2013 20.3394 14.5964 20.5613 15.0482C20.7833 15.5001 20.8991 15.9966 20.9 16.5V19.8H17.6ZM5.22498 13.3034C4.6824 14.2814 4.39843 15.3816 4.39998 16.5V19.8H1.09998V16.5C1.09976 15.9962 1.21489 15.4991 1.43652 15.0467C1.65815 14.5944 1.98041 14.1987 2.3786 13.8902C2.77679 13.5816 3.24033 13.3683 3.73372 13.2666C4.2271 13.1649 4.73722 13.1775 5.22498 13.3034Z" fill="#737682"/>
</svg>
