<svg width="40" height="40" viewBox="0 0 40 40" fill="none" xmlns="http://www.w3.org/2000/svg">
<path d="M38.6188 11.6187C38.2719 10.4719 38.6594 9.25625 38.4438 8.09062C38.2656 7.10937 37.825 6.1875 37.3 5.34687C36.35 3.825 34.425 3.1375 32.725 2.925C31.575 2.78125 30.3594 2.93437 29.3094 2.34062C28.5438 1.90937 27.7313 1.45312 26.8938 1.12812C24.7906 0.31875 22.3781 0.209375 20.1438 0.14375L20 0.140625L19.8563 0.14375C17.625 0.209375 15.2125 0.31875 13.1094 1.12812C12.2719 1.45 11.4594 1.90625 10.6938 2.34062C9.64376 2.93437 8.42813 2.78125 7.27501 2.925C5.57813 3.13437 3.65313 3.82187 2.70313 5.34687C2.17813 6.1875 1.74063 7.10937 1.55938 8.09062C1.34376 9.25625 1.73126 10.4719 1.38438 11.6187C1.30626 11.8781 0.978132 12.2625 1.10626 12.5531C1.23751 12.8562 1.95938 13.0781 2.23126 13.2344C3.14063 13.7687 4.14063 14.1469 5.15313 14.4469C5.83126 14.65 6.53751 15.0687 7.27188 14.9656C7.58751 14.9219 7.83126 14.7937 7.87813 14.4687C8.01876 13.475 8.36876 12.4625 8.69376 11.5187C8.78126 11.2625 8.91251 10.8062 9.28126 10.8375C9.53126 10.8594 9.67188 11.3969 9.65626 11.5937C9.59688 12.3406 9.42188 13.0812 9.39376 13.8312C9.36251 14.6187 9.58751 15.2594 9.83751 15.9875C10.1188 16.7969 10.4625 17.5875 10.7063 18.4094C10.9656 19.3062 10.8094 20.2531 10.5469 21.1313C9.91563 23.225 9.05938 25.1406 8.22188 27.1531C7.90626 27.9062 7.63126 28.675 7.32188 29.4312C7.18148 29.774 7.03142 30.1126 6.87188 30.4469C6.43751 31.3594 5.50626 32.0437 5.62501 33.1812C5.81251 34.9687 7.48751 36.0062 8.87813 36.8656C12.1813 38.9094 16.1188 39.8781 20.0031 39.8594C23.8906 39.8781 27.8281 38.9125 31.1344 36.8656C32.5219 36.0062 34.2 34.9687 34.3875 33.1812C34.5063 32.0469 33.5719 31.3594 33.1406 30.4469C32.9844 30.1156 32.8313 29.7719 32.6938 29.4312C32.3875 28.675 32.1094 27.9062 31.7938 27.1531C30.9531 25.1406 30.0969 23.225 29.4688 21.1313C29.2063 20.2531 29.0469 19.3062 29.3094 18.4094C29.55 17.5844 29.8969 16.7969 30.175 15.9875C30.4281 15.2594 30.65 14.6187 30.6219 13.8312C30.5969 13.0781 30.4188 12.3406 30.3594 11.5937C30.3469 11.4 30.4844 10.8594 30.7313 10.8375C31.1031 10.8094 31.2344 11.2625 31.3219 11.5187C31.6469 12.4656 31.9969 13.4781 32.1375 14.4687C32.1844 14.7937 32.4281 14.9219 32.7438 14.9656C33.4813 15.0687 34.1813 14.65 34.8625 14.4469C35.875 14.1469 36.8719 13.7687 37.7844 13.2344C38.0531 13.0781 38.775 12.8562 38.9094 12.5531C39.025 12.2625 38.7 11.8781 38.6188 11.6187Z" fill="#FCC21B"/>
<path d="M16.825 8.36563C16.0125 8.725 15.0781 8.66563 14.2563 8.3625L14.2031 8.34375C13.7375 8.16563 13.2438 7.85938 12.8625 7.53438C11.6438 6.475 11.5219 4.62813 12.0031 3.18438C12.1281 2.80625 12.5594 2.29688 13.0094 2.39063C13.075 2.40625 13.1438 2.43125 13.2125 2.46563C13.6625 2.7 14 3.07813 14.4094 3.36875C15.1219 3.875 15.8594 4.09688 16.6625 4.40938C17.225 4.625 17.8031 4.80313 18.3875 4.92813C18.5438 4.95938 18.7188 5.0125 18.8625 5.06563C19.0875 5.15 19.1 5.4 19.1094 5.60625C19.1375 6.13438 18.5875 6.80313 18.2781 7.19063C17.8875 7.675 17.4094 8.10938 16.825 8.36563ZM26.9188 7.53125C26.5406 7.85938 26.0469 8.1625 25.5781 8.34063L25.5281 8.35938C24.7094 8.6625 23.7719 8.72188 22.9594 8.3625C22.375 8.10625 21.8969 7.675 21.5031 7.18125C21.1938 6.79688 20.6438 6.125 20.6719 5.59688C20.6844 5.39063 20.6969 5.14063 20.9219 5.05625C21.0688 5 21.2438 4.95 21.3969 4.91875C21.9844 4.79375 22.5625 4.61563 23.125 4.4C23.9281 4.09063 24.6656 3.86563 25.3781 3.35938C25.7875 3.06875 26.1281 2.6875 26.575 2.45625C26.6438 2.42188 26.7125 2.39375 26.7781 2.38125C27.2281 2.2875 27.6563 2.8 27.7813 3.175C28.2625 4.625 28.1406 6.47188 26.9188 7.53125Z" fill="white"/>
<path d="M19.9031 33.6656C20.7108 33.6656 21.3656 33.0108 21.3656 32.2031C21.3656 31.3954 20.7108 30.7406 19.9031 30.7406C19.0954 30.7406 18.4406 31.3954 18.4406 32.2031C18.4406 33.0108 19.0954 33.6656 19.9031 33.6656Z" fill="#F79329"/>
<path d="M19.9031 26.15C20.7108 26.15 21.3656 25.4952 21.3656 24.6875C21.3656 23.8798 20.7108 23.225 19.9031 23.225C19.0954 23.225 18.4406 23.8798 18.4406 24.6875C18.4406 25.4952 19.0954 26.15 19.9031 26.15Z" fill="#F79329"/>
<path d="M19.9031 18.6375C20.7108 18.6375 21.3656 17.9827 21.3656 17.175C21.3656 16.3673 20.7108 15.7125 19.9031 15.7125C19.0954 15.7125 18.4406 16.3673 18.4406 17.175C18.4406 17.9827 19.0954 18.6375 19.9031 18.6375Z" fill="#F79329"/>
<path d="M19.9031 11.1219C20.7108 11.1219 21.3656 10.4671 21.3656 9.65938C21.3656 8.85166 20.7108 8.19688 19.9031 8.19688C19.0954 8.19688 18.4406 8.85166 18.4406 9.65938C18.4406 10.4671 19.0954 11.1219 19.9031 11.1219Z" fill="#F79329"/>
</svg>
