<svg width="40" height="40" viewBox="0 0 40 40" fill="none" xmlns="http://www.w3.org/2000/svg">
<path d="M30.3063 17.9875L39.6875 9.80938C40.1063 9.44375 39.7813 8.75625 39.2313 8.85L38.8344 8.91563C37.871 9.07612 36.9674 9.4891 36.2156 10.1125L25.5375 18.8156L30.3063 17.9875Z" fill="#FBC21A"/>
<path d="M39.3063 8.84062L30.4188 15.5531H28.2313C28.2313 15.5531 34.1125 11.1437 35.8531 9.9125C37.3094 8.88437 38.5156 8.78437 39.3063 8.84062Z" fill="#1A6CA2"/>
<path d="M25.0812 13.4531C25.0812 13.4531 20.5937 14.3844 13.1719 18.2812C6.7625 21.65 6.61875 21.5125 6.61875 21.5125C6.61875 21.5125 2.30937 23.3312 2.35625 24.0219C2.40312 24.7125 2.8625 25.9562 3.6 26.0937C4.3375 26.2312 17.1906 25.0531 18.3406 24.85C21.7031 24.25 26.7937 22.85 30.3062 21.4594C33.8187 20.0687 36.3844 17.9906 37.075 15.825C37.075 15.825 37.5 14.7156 36.2562 14.7156C35.0125 14.7156 29.5906 14.9719 29.5906 14.9719C29.5906 14.9719 26.9687 13.0844 25.0812 13.4531Z" fill="#CFD8DC"/>
<path d="M35.1531 17.2031C35.1531 17.2031 33.4594 18.7031 31.8 19.4344C29.0812 20.6312 21.3437 22.9094 18.825 23.5281C16.9 24.0031 12.9937 24.8375 11.1187 24.9469C8.63436 25.0875 7.67811 23.4438 6.61874 21.5094C5.75936 19.9406 4.47499 16.9344 3.87186 15.6187C3.81182 15.488 3.70295 15.386 3.56859 15.3346C3.43423 15.2832 3.28508 15.2865 3.15311 15.3437L1.77499 15.9344C1.54999 16.0313 1.41249 16.2656 1.44374 16.5094L2.40624 24.2969C2.40624 24.2969 2.54374 25.8625 3.60311 26.0938C4.66249 26.325 13.0906 25.45 15.9031 25.3094C18.7156 25.1687 25.9687 23.3156 30.3094 21.4563C34.65 19.5969 35.4406 18.4062 36.2156 17.4312C36.2125 17.4344 35.6594 17.3875 35.1531 17.2031Z" fill="#1A6CA2"/>
<path d="M7.00938 23.0094C7.00938 23.0094 6.73438 22.4094 5.16563 23.0094C3.59688 23.6094 2.58751 23.9313 2.58751 23.9313L0.190631 25.5656C-0.0812439 25.75 0.0750061 26.175 0.403131 26.1375L1.67501 26C1.71453 25.9967 1.75289 25.985 1.78751 25.9656C2.27188 25.7062 6.01876 23.6969 7.00938 23.0094Z" fill="#FBC21A"/>
<path d="M28.9344 15.0812C28.9344 15.0812 26.55 16.6062 25.4094 17.8844C25.4094 17.8844 24.9594 18.1594 24.5812 17.6094C24.2 17.0562 23.4437 15.5062 24.0312 14.9781C24.6187 14.45 25.6469 13.7 26.2344 13.8312C27.5969 14.1344 28.9344 15.0812 28.9344 15.0812Z" fill="#1A6CA2"/>
<path d="M36.2062 17.4625C36.1562 17.4594 34.7437 17.4188 34.5219 16.2906C34.3094 15.2063 34.8437 14.775 34.8437 14.775C34.8437 14.775 37.0469 14.4969 37.3375 15.0906C37.75 15.9469 36.2062 17.4625 36.2062 17.4625Z" fill="#64878E"/>
<path d="M21.4594 18.8156C22.0738 18.8156 22.5719 18.3175 22.5719 17.7031C22.5719 17.0887 22.0738 16.5906 21.4594 16.5906C20.8449 16.5906 20.3469 17.0887 20.3469 17.7031C20.3469 18.3175 20.8449 18.8156 21.4594 18.8156Z" fill="#1A6CA2"/>
<path d="M17.8781 19.8406C18.3994 19.8406 18.8219 19.4181 18.8219 18.8969C18.8219 18.3757 18.3994 17.9531 17.8781 17.9531C17.3569 17.9531 16.9344 18.3757 16.9344 18.8969C16.9344 19.4181 17.3569 19.8406 17.8781 19.8406Z" fill="#1A6CA2"/>
<path d="M14.7906 20.6406C15.2255 20.6406 15.5781 20.288 15.5781 19.8531C15.5781 19.4182 15.2255 19.0656 14.7906 19.0656C14.3557 19.0656 14.0031 19.4182 14.0031 19.8531C14.0031 20.288 14.3557 20.6406 14.7906 20.6406Z" fill="#1A6CA2"/>
<path d="M25.3312 23.1188C25.3312 23.1188 24.9937 21.3906 22.5719 21.625C20.15 21.8594 15.1562 23.7125 15.1562 23.7125L3.53749 31.7875C3.18436 32.0312 3.22499 32.5656 3.61249 32.7531C4.33741 33.1085 5.1376 33.283 5.94465 33.2618C6.75171 33.2405 7.54162 33.0242 8.24686 32.6312L25.3312 23.1188Z" fill="#1A6CA2"/>
<path d="M21.875 21.1969L4.27188 33.75H6.77188L26.875 22.7438L25.5375 21.1969H21.875Z" fill="#FBC21A"/>
</svg>
