<svg width="26" height="26" viewBox="0 0 26 26" fill="none" xmlns="http://www.w3.org/2000/svg">
<path fill-rule="evenodd" clip-rule="evenodd" d="M17.8961 2.31887C18.4293 1.786 19.1524 1.48666 19.9062 1.48666C20.6601 1.48666 21.3831 1.786 21.9163 2.31887L23.6811 4.08362C24.214 4.61687 24.5133 5.33988 24.5133 6.09374C24.5133 6.84761 24.214 7.57062 23.6811 8.10387L9.68985 22.0951C9.3486 22.4364 8.9261 22.6866 8.46135 22.8182L3.17847 24.3295C2.96937 24.3893 2.74809 24.392 2.53758 24.3374C2.32707 24.2828 2.13501 24.1728 1.98132 24.019C1.82762 23.8651 1.7179 23.6729 1.66352 23.4624C1.60915 23.2518 1.61211 23.0305 1.6721 22.8215L3.18172 17.5402C3.31405 17.0748 3.56294 16.6509 3.90485 16.3085L17.8961 2.31724V2.31887ZM20.1938 4.04137C20.1561 4.00354 20.1113 3.97352 20.0619 3.95304C20.0126 3.93256 19.9597 3.92202 19.9062 3.92202C19.8528 3.92202 19.7999 3.93256 19.7505 3.95304C19.7012 3.97352 19.6563 4.00354 19.6186 4.04137L17.5678 6.09374L19.9062 8.43374L21.9586 6.38137C21.9964 6.34363 22.0264 6.2988 22.0469 6.24945C22.0674 6.20009 22.0779 6.14718 22.0779 6.09374C22.0779 6.04031 22.0674 5.9874 22.0469 5.93804C22.0264 5.88869 21.9964 5.84386 21.9586 5.80612L20.1938 4.04137ZM18.1821 10.1562L15.8437 7.81624L5.62897 18.0326C5.57994 18.0813 5.54415 18.1417 5.52497 18.2081L4.61822 21.3817L7.79185 20.475C7.85827 20.4559 7.91869 20.4201 7.96735 20.371L18.1821 10.1562Z" fill="#737682"/>
</svg>
