<svg width="21" height="21" viewBox="0 0 21 21" fill="none" xmlns="http://www.w3.org/2000/svg">
<g clip-path="url(#clip0_5_9)">
<path fill-rule="evenodd" clip-rule="evenodd" d="M9.1875 1.75C5.07988 1.75 1.75 5.07988 1.75 9.1875C1.75 13.2951 5.07988 16.625 9.1875 16.625C10.926 16.625 12.5253 16.0285 13.7917 15.029L16.9874 18.2248C17.3291 18.5665 17.8832 18.5665 18.2248 18.2248C18.5665 17.8831 18.5665 17.329 18.2248 16.9873L15.0291 13.7916C16.0285 12.5252 16.625 10.926 16.625 9.1875C16.625 5.07988 13.2951 1.75 9.1875 1.75ZM3.5 9.1875C3.5 6.04638 6.04638 3.5 9.1875 3.5C12.3287 3.5 14.875 6.04638 14.875 9.1875C14.875 12.3287 12.3287 14.875 9.1875 14.875C6.04638 14.875 3.5 12.3287 3.5 9.1875Z" fill="#737682"/>
</g>
<defs>
<clipPath id="clip0_5_9">
<rect width="21" height="21" fill="white"/>
</clipPath>
</defs>
</svg>
