<svg width="40" height="40" viewBox="0 0 40 40" fill="none" xmlns="http://www.w3.org/2000/svg">
<path d="M20 31.8822C26.5624 31.8822 31.8822 26.5624 31.8822 20C31.8822 13.4376 26.5624 8.11778 20 8.11778C13.4376 8.11778 8.11777 13.4376 8.11777 20C8.11777 26.5624 13.4376 31.8822 20 31.8822Z" fill="#FFCC4D"/>
<path d="M11.3656 25.2789C10.2711 25.3533 9.4889 24.9367 8.91779 24.26C9.15556 24.8789 9.4589 25.4611 9.79334 26.0244C10.65 26.3455 11.5611 26.48 12.6156 25.7222C12.1011 25.47 11.6378 25.2611 11.3656 25.2789ZM25.6511 9.56444C25.7011 9.92888 25.4433 10.12 24.8178 9.96777C23.7567 9.70999 22.8256 10.83 22.2911 11.7667C21.2389 13.6078 16.8978 15.6822 16.8945 14.0855C16.8933 13.3311 13.0589 15.0222 12.5689 14.2644C12.1056 13.5489 10.7211 13.8244 10.4345 12.9667C9.13701 14.7269 8.35245 16.8122 8.16779 18.9911C8.58667 19.7889 9.12779 20.4155 9.67001 20.6867C10.4033 21.0533 13.81 22.3844 14.3078 21.5344C15.1378 20.1167 20.1178 21.12 19.9989 20.3744C19.7711 18.9467 22.6956 20.1189 23.7467 18.2789C24.2822 17.3422 25.45 16.6233 26.5122 16.8811C27.7522 17.1822 29.2822 15.0555 29.1667 12.4411C28.1905 11.2652 26.9969 10.2885 25.6511 9.56444ZM29.1856 27.5367C28.81 27.7211 28.44 27.8622 28.1022 27.8989C25.6045 28.1689 25.0645 30.1267 23.3889 29.7911C22.5256 29.6178 21.3478 31.14 20 31.2322C19.1107 31.2976 18.2257 31.4119 17.3489 31.5744C18.2183 31.776 19.1076 31.8793 20 31.8822C23.7011 31.8822 27.0056 30.19 29.1856 27.5367Z" fill="#F4900C"/>
<path d="M25.8055 9.63777C26.8592 10.2309 27.8161 10.9814 28.6433 11.8633C31.4111 11.6889 33.0989 12.34 32.9578 13.8378C32.8844 14.6211 32.3078 15.5511 31.3678 16.5433C29.0255 19.0111 24.3578 21.8722 19.0678 23.8789C15.3911 25.2733 12.1144 25.99 9.77221 26.0278C7.38888 26.0667 5.97443 25.4022 6.10332 24.0244C6.18776 23.1189 6.93888 22.0178 8.1611 20.85C8.13999 20.5667 8.11776 20.2867 8.11776 20C8.11776 19.0578 8.23888 18.1456 8.44665 17.2656C3.66665 20.58 0.555542 24.23 0.555542 27.0767C0.555542 30.9511 6.2911 32.1411 14.1944 30.3622C16.1643 29.9126 18.1034 29.3377 20 28.6411C24.3333 27.0644 28.3211 24.9744 31.5544 22.7333C36.3333 19.4189 39.4444 15.7689 39.4444 12.9222C39.4444 9.04889 33.7089 7.85777 25.8055 9.63777Z" fill="#E85E00"/>
<path d="M7.06222 20.0567C6.25029 20.8411 5.54768 21.7313 4.97333 22.7033C4.42889 23.65 3.96556 24.7155 4.03556 25.6711C4.07444 26.6222 4.79333 27.1889 5.76667 27.4511C6.73778 27.7033 7.81667 27.77 8.91556 27.7055C11.1134 27.6032 13.2916 27.2434 15.4056 26.6333C17.5433 26.0722 19.6178 25.2722 21.6444 24.3711C25.7122 22.5493 29.5023 20.162 32.9022 17.28C33.3111 16.91 33.7589 16.5589 34.1511 16.1844C34.5211 15.81 34.87 15.3922 35.1622 14.9655C35.7422 14.1122 36.08 13.1133 35.5344 12.3522C34.99 11.5789 33.8733 11.1578 32.8089 10.94C31.7189 10.7322 30.5756 10.6844 29.4422 10.8167C30.5444 10.5222 31.7056 10.3778 32.8733 10.4655C34.0178 10.5678 35.2867 10.7989 36.2156 11.8222C36.6711 12.33 36.8811 13.0944 36.7978 13.7622C36.7344 14.4411 36.4722 15.04 36.1722 15.5789C35.8633 16.1178 35.5167 16.6067 35.1222 17.0767C34.7311 17.5255 34.3344 17.94 33.9311 18.3689C30.6733 21.6955 26.7756 24.3844 22.53 26.3233C18.29 28.2344 13.67 29.5578 8.90667 29.3833C7.73333 29.3389 6.51 29.2355 5.31111 28.7744C4.71778 28.5422 4.10889 28.2 3.64444 27.6455C3.17808 27.0987 2.9433 26.3916 2.99 25.6744C3.09889 24.3267 3.77222 23.2833 4.48889 22.3678C5.21736 21.4646 6.08621 20.6842 7.06222 20.0567Z" fill="#F4900C"/>
</svg>
